<?xml version="1.0" encoding="iso-8859-1"?>
<!-- Uploaded to: SVG Repo, www.svgrepo.com, Generator: SVG Repo Mixer Tools -->
<!DOCTYPE svg PUBLIC "-//W3C//DTD SVG 1.1//EN" "http://www.w3.org/Graphics/SVG/1.1/DTD/svg11.dtd">
<svg fill="#4A9EFF" version="1.1" id="Capa_1" xmlns="http://www.w3.org/2000/svg" xmlns:xlink="http://www.w3.org/1999/xlink" 
	 width="800px" height="800px" viewBox="0 0 375.469 375.469"
	 xml:space="preserve">
<g>
	<g>
		<polygon points="35.533,137.782 35.347,137.078 33.956,137.078 0,268.02 67.279,268.02 		"/>
		<path d="M340.505,137.078h-4.116c0.091-2.076,0-4.152-0.292-6.235c-0.816-5.891-3.033-11.728-6.967-17.053
			c-5.912-7.989-14.602-12.571-23.851-12.571c-6.941,0-13.719,2.606-19.321,7.246c-5.37-4.665-11.995-7.246-18.938-7.246
			c-6.941,0-13.719,2.606-19.314,7.246c-5.383-4.665-12.008-7.246-18.949-7.246s-13.713,2.606-19.314,7.246
			c-5.371-4.665-12.002-7.246-18.943-7.246c-6.939,0-13.716,2.606-19.315,7.246c-5.376-4.665-12.005-7.246-18.943-7.246
			c-6.941,0-13.719,2.606-19.318,7.246c-5.374-4.665-12.001-7.246-18.943-7.246c-6.938,0-13.716,2.606-19.318,7.246
			c-5.374-4.665-12.001-7.246-18.94-7.246c-8.869,0-17.503,4.207-23.702,11.548c-3.105,3.678-3.785,8.4-1.821,12.632
			c1.047,2.259,2.762,4.128,4.826,5.438c2.016,1.279,4.36,2.021,6.759,2.021c2.344,0,4.539-0.743,6.466-2.021
			c0.987-0.654,1.915-1.403,2.719-2.356c1.498-1.778,3.075-2.749,4.445-2.749c1.878,0,3.617,1.781,4.491,2.841
			c0.584,0.718,1.041,1.485,1.434,2.265c0.993,1.994,1.327,4.147,1.035,6.235H41.595l32.41,130.941l1.541,6.235h299.924
			l-33.953-137.177h-1.011V137.078z M305.28,107.455c6.936,0,13.828,3.272,18.834,10.044c3.117,4.217,4.89,8.762,5.663,13.344
			c0.353,2.083,0.48,4.159,0.365,6.235c-0.433,7.907-4.074,15.564-10.797,21.468c-1.163,1.023-2.368,1.452-3.513,1.452
			c-4.665,0-8.306-7.17-3.617-11.289c3.593-3.164,5.639-7.329,6.022-11.637c0.176-2.076-0.043-4.189-0.64-6.235
			c-0.651-2.183-1.741-4.296-3.312-6.217c-2.801-3.416-6.053-5.124-9.311-5.124c-3.051,0-6.095,1.543-8.793,4.545
			c-1.235-3.532-2.898-7.002-5.315-10.257c-0.195-0.268-0.427-0.505-0.634-0.767C294.751,109.37,300.025,107.455,305.28,107.455z
			 M298.125,137.078c0.098-2.076-1.267-4.152-1.267-6.235c0-0.006,0-0.012,0-0.018c0-0.648,2.375-1.397,3.179-2.339
			c1.498-1.777,3.325-2.749,4.688-2.749c1.876,0,3.739,1.781,4.604,2.844c0.591,0.716,1.108,1.482,1.498,2.262
			c0.993,1.994,1.389,4.147,1.097,6.235H298.125z M267.021,107.455c5.104,0,10.163,1.808,14.48,5.431
			c0.792,0.655,1.479,1.501,2.21,2.281c0.713,0.767,1.492,1.439,2.144,2.326c0.013,0.012,0.013,0.024,0.03,0.045
			c2.107,2.862,3.551,5.886,4.573,8.958c0.359,1.081,0.651,2.159,0.871,3.246c0.073,0.365,0.121,0.728,0.188,1.096
			c0.116,0.655,0.268,1.31,0.335,1.964c0.14,1.428,0.109,2.85,0.036,4.271c-0.438,7.907-4.079,15.564-10.802,21.468
			c-1.157,1.022-2.375,1.452-3.52,1.452c-4.652,0-8.293-7.17-3.604-11.29c3.586-3.164,5.632-7.329,6.016-11.636
			c0.177-2.076-0.036-4.189-0.646-6.235c-0.646-2.183-1.729-4.296-3.312-6.217c-2.801-3.416-6.053-5.124-9.304-5.124
			c-3.051,0-6.096,1.543-8.793,4.545c-1.236-3.531-2.898-7.002-5.315-10.257c-0.201-0.271-0.433-0.505-0.634-0.768
			C256.494,109.37,261.76,107.455,267.021,107.455z M259.867,137.078c0.092-2.076-0.42-4.152-0.42-6.235c0-0.006,0-0.012,0-0.018
			c0-0.648,1.954-1.397,2.752-2.339c1.498-1.777,3.111-2.749,4.481-2.749c1.876,0,3.63,1.781,4.494,2.844
			c0.591,0.716,1.06,1.482,1.443,2.262c0.992,1.994,1.333,4.147,1.041,6.235H259.867z M228.757,107.455
			c5.103,0,10.169,1.808,14.486,5.431c0.785,0.655,1.479,1.501,2.21,2.281c0.719,0.767,1.485,1.439,2.144,2.326
			c0.012,0.012,0.012,0.024,0.024,0.045c2.112,2.862,3.556,5.886,4.579,8.958c0.353,1.081,0.646,2.159,0.87,3.246
			c0.079,0.365,0.128,0.728,0.189,1.096c0.109,0.655,0.268,1.31,0.335,1.964c0.14,1.428,0.104,2.85,0.03,4.271
			c-0.438,7.907-4.08,15.564-10.803,21.468c-1.156,1.022-2.362,1.452-3.513,1.452c-4.658,0-8.3-7.17-3.611-11.29
			c3.593-3.164,5.639-7.329,6.017-11.636c0.183-2.076-0.037-4.189-0.64-6.235c-0.651-2.183-1.735-4.296-3.312-6.217
			c-2.795-3.416-6.053-5.124-9.311-5.124c-3.045,0-6.089,1.543-8.793,4.545c-1.229-3.531-2.898-7.002-5.31-10.257
			c-0.201-0.271-0.426-0.505-0.633-0.768C218.235,109.37,223.502,107.455,228.757,107.455z M221.609,137.078
			c0.091-2.076,0.426-4.152,0.426-6.235c0-0.006,0-0.012,0-0.018c0-0.648,1.534-1.392,2.326-2.339
			c1.498-1.777,2.898-2.749,4.269-2.749c1.875,0,3.525,1.781,4.396,2.844c0.584,0.716,0.992,1.482,1.388,2.262
			c0.993,1.994,1.285,4.147,0.993,6.235H221.609z M190.5,107.455c5.103,0,10.162,1.808,14.485,5.431
			c0.786,0.655,1.474,1.501,2.204,2.281c0.719,0.767,1.492,1.434,2.144,2.326c0.013,0.012,0.013,0.024,0.024,0.045
			c2.119,2.862,3.557,5.886,4.579,8.958c0.354,1.081,0.651,2.159,0.877,3.246c0.073,0.365,0.122,0.728,0.183,1.096
			c0.116,0.655,0.268,1.31,0.341,1.964c0.134,1.428,0.104,2.85,0.03,4.271c-0.438,7.907-4.079,15.564-10.796,21.468
			c-1.163,1.022-2.374,1.452-3.52,1.452c-4.658,0-8.299-7.17-3.61-11.29c3.586-3.164,5.632-7.329,6.016-11.636
			c0.177-2.076-0.036-4.189-0.639-6.235c-0.652-2.183-1.736-4.296-3.312-6.217c-2.802-3.416-6.053-5.124-9.311-5.124
			c-3.051,0-6.092,1.543-8.793,4.545c-1.233-3.531-2.898-7.002-5.312-10.257c-0.198-0.271-0.43-0.505-0.637-0.768
			C179.98,109.37,185.244,107.455,190.5,107.455z M183.354,137.078c0.088-2.076,1.267-4.152,1.267-6.235c0-0.006,0-0.012,0-0.018
			c0-0.648,1.111-1.392,1.909-2.339c1.495-1.777,2.686-2.749,4.053-2.749c1.875,0,3.419,1.781,4.289,2.844
			c0.585,0.716,0.944,1.482,1.334,2.262c0.992,1.994,1.23,4.147,0.938,6.235H183.354z M152.241,107.455
			c5.1,0,10.163,1.808,14.483,5.431c0.785,0.655,1.479,1.501,2.207,2.281c0.719,0.767,1.492,1.439,2.146,2.326
			c0.012,0.012,0.012,0.024,0.024,0.045c2.113,2.862,3.553,5.886,4.576,8.958c0.356,1.081,0.648,2.159,0.874,3.246
			c0.073,0.365,0.125,0.728,0.186,1.096c0.112,0.655,0.268,1.31,0.338,1.964c0.137,1.428,0.106,2.85,0.03,4.271
			c-0.436,7.907-4.077,15.564-10.799,21.468c-1.16,1.022-2.369,1.452-3.516,1.452c-4.658,0-8.3-7.17-3.611-11.29
			c3.593-3.164,5.639-7.329,6.017-11.636c0.183-2.076-0.037-4.189-0.64-6.235c-0.648-2.183-1.735-4.296-3.312-6.217
			c-2.801-3.416-6.056-5.124-9.311-5.124c-3.047,0-6.092,1.543-8.79,4.545c-1.236-3.531-2.901-7.002-5.312-10.257
			c-0.201-0.271-0.433-0.505-0.636-0.768C141.722,109.37,146.983,107.455,152.241,107.455z M145.095,137.078
			c0.085-2.076,2.113-4.152,2.113-6.235c0-0.006,0-0.012,0-0.018c0-0.648,0.685-1.392,1.483-2.339
			c1.498-1.777,2.475-2.749,3.842-2.749c1.875,0,3.318,1.781,4.183,2.844c0.588,0.716,0.892,1.482,1.285,2.262
			c0.992,1.994,1.178,4.147,0.886,6.235H145.095z M113.979,107.455c5.1,0,10.163,1.808,14.486,5.431
			c0.786,0.655,1.477,1.501,2.208,2.281c0.715,0.767,1.488,1.439,2.143,2.326c0.012,0.012,0.012,0.024,0.024,0.045
			c2.116,2.862,3.556,5.886,4.579,8.958c0.353,1.081,0.648,2.159,0.871,3.246c0.076,0.365,0.125,0.728,0.189,1.096
			c0.113,0.655,0.268,1.31,0.335,1.964c0.137,1.428,0.106,2.85,0.033,4.271c-0.438,7.907-4.08,15.564-10.802,21.468
			c-1.157,1.022-2.369,1.452-3.516,1.452c-4.655,0-8.296-7.17-3.608-11.29c3.589-3.164,5.635-7.329,6.016-11.636
			c0.18-2.076-0.037-4.189-0.643-6.235c-0.648-2.183-1.732-4.296-3.31-6.217c-2.801-3.416-6.056-5.124-9.31-5.124
			c-3.051,0-6.092,1.543-8.793,4.545c-1.233-3.531-2.898-7.002-5.312-10.257c-0.198-0.271-0.43-0.505-0.637-0.768
			C103.46,109.37,108.731,107.455,113.979,107.455z M103.561,130.843c0-0.006,0-0.012,0-0.018c6.235-0.648,3.379-1.392,4.177-2.339
			c1.498-1.777,3.824-2.749,5.188-2.749c1.878,0,3.991,1.781,4.856,2.844c0.588,0.716,1.23,1.482,1.623,2.262
			c0.992,1.994,1.516,4.147,1.221,6.235h-13.792C106.922,135.002,109.796,132.926,103.561,130.843z M82.66,148.715
			c3.592-3.163,5.635-7.328,6.016-11.637c0.183-2.076-0.037-4.189-0.643-6.235c-0.648-2.183-1.732-4.296-3.31-6.217
			c-2.801-3.416-6.056-5.124-9.31-5.124c-3.203,0-6.415,1.65-9.21,4.963c-1.291,1.528-2.868,2.165-4.42,2.165
			c-4.5,0-8.766-5.376-5-9.84c5.194-6.156,12.09-9.34,18.938-9.34c5.1,0,10.163,1.808,14.483,5.431
			c0.786,0.655,1.479,1.501,2.207,2.281c0.719,0.767,1.492,1.434,2.146,2.326c0.012,0.013,0.012,0.024,0.024,0.046
			c2.113,2.862,3.553,5.885,4.576,8.957c0.356,1.081,0.648,2.152,0.874,3.246c0.073,0.366,0.125,0.728,0.186,1.096
			c0.112,0.654,0.268,1.309,0.338,1.964c0.137,1.428,0.106,2.85,0.03,4.271c-0.435,7.907-4.077,15.563-10.799,21.467
			c-1.16,1.023-2.369,1.452-3.517,1.452C81.613,160.004,77.971,152.834,82.66,148.715z M90.959,249.313L74.33,180.726h128.999h0.128
			l19.485,68.588H90.959z M231.388,183.843c0-1.72,1.394-3.118,3.117-3.118h88.049h5.48c1.717,0,3.117,1.397,3.117,3.118
			s-1.4,3.118-3.117,3.118h-7.094h-86.436C232.782,186.961,231.388,185.563,231.388,183.843z M306.388,243.078h-49.073
			l-10.022-37.411h68.795h8.976l11.734,37.411H306.388z"/>
	</g>
</g>
</svg>